<?xml version="1.0" encoding="UTF-8" standalone="no"?>
<!-- Created with Inkscape (http://www.inkscape.org/) -->

<svg
   xmlns:dc="http://purl.org/dc/elements/1.1/"
   xmlns:cc="http://creativecommons.org/ns#"
   xmlns:rdf="http://www.w3.org/1999/02/22-rdf-syntax-ns#"
   xmlns:svg="http://www.w3.org/2000/svg"
   xmlns="http://www.w3.org/2000/svg"
   xmlns:sodipodi="http://sodipodi.sourceforge.net/DTD/sodipodi-0.dtd"
   xmlns:inkscape="http://www.inkscape.org/namespaces/inkscape"
   width="264.84503mm"
   height="264.84485mm"
   viewBox="0 0 938.42728 938.42663"
   id="svg4146"
   version="1.1"
   inkscape:version="0.91 r13725"
   sodipodi:docname="missing-bus-stop.svg"
   inkscape:export-filename="/Users/edward/BusTimingsAppDesigns/BusStop.png"
   inkscape:export-xdpi="98.209999"
   inkscape:export-ydpi="98.209999">
  <defs
     id="defs4148" />
  <sodipodi:namedview
     id="base"
     pagecolor="#ffffff"
     bordercolor="#666666"
     borderopacity="1.0"
     inkscape:pageopacity="0.0"
     inkscape:pageshadow="2"
     inkscape:zoom="0.7"
     inkscape:cx="832.35042"
     inkscape:cy="795.59628"
     inkscape:document-units="px"
     inkscape:current-layer="layer1"
     showgrid="false"
     inkscape:window-width="1436"
     inkscape:window-height="855"
     inkscape:window-x="0"
     inkscape:window-y="0"
     inkscape:window-maximized="1"
     fit-margin-top="0"
     fit-margin-left="0"
     fit-margin-right="0"
     fit-margin-bottom="0" />
  <metadata
     id="metadata4151">
    <rdf:RDF>
      <cc:Work
         rdf:about="">
        <dc:format>image/svg+xml</dc:format>
        <dc:type
           rdf:resource="http://purl.org/dc/dcmitype/StillImage" />
        <dc:title />
      </cc:Work>
    </rdf:RDF>
  </metadata>
  <g
     inkscape:label="Layer 1"
     inkscape:groupmode="layer"
     id="layer1"
     transform="translate(445.35097,70.584757)">
    <path
       style="fill:#c0c0c0;fill-opacity:1;fill-rule:evenodd;stroke:none;stroke-width:1px;stroke-linecap:butt;stroke-linejoin:miter;stroke-opacity:1"
       d="m 237.83398,73.214844 c -71.43969,0.01186 -145.334202,0.121133 -224.488277,0.511718 -4.5377596,0 -6.538328,2.429687 -8.673828,13.353516 C 2.536495,98.003917 0,123.79687 0,134.7207 c 0,10.92383 0.84930848,8.19177 21.611328,9.90821 5.14982,0.42613 30.442348,0.7971 66.523438,1.11718 -0.59214,60.52135 -2.01642,448.03036 -1.25,561.8711 0.21489,49.80247 -0.03664,80.92814 0.166015,100.4414 l -18.253906,0 c -5.85569,0 -10.57031,10.71798 -10.570313,24.03125 l 0,13.73438 c 0,13.31335 4.714623,24.03125 10.570313,24.03125 l 399.914065,0 0,-709.69524 C 367.1405,120.80176 367.34726,121.69807 237.83398,73.214844 Z M 99.023438,145.82617 c 54.844412,0.44835 130.014522,0.78555 198.998342,1.01272 101.30869,41.64342 119.6595,45.80117 160.87041,63.99213 0.14171,73.88898 0.70488,162.99745 0.18593,296.9932 -129.52463,-0.25632 -334.47658,-0.57548 -359.988276,-1.79883 0.10324,-150.88488 0.23954,-315.23808 -0.06641,-360.19922 z m 0.05664,375.67969 c 19.804662,0.60313 177.484202,2.90039 222.451172,2.90039 26.41699,0 84.57629,-0.10495 137.48047,0 -0.19332,48.53075 -0.3813,95.38387 -0.56055,131.03125 -129.66568,-0.25632 -334.24563,-0.56953 -359.435545,-1.79297 0.004,-38.20766 0.03625,-85.48457 0.06445,-132.13867 z M 330.26233,777.53209 244.00172,760.38923 161.31255,746.10352 c -8.86545,-1.53163 -16.24023,3.05758 -16.24023,6.85351 l 0,8.3418 c 0,3.79593 7.24345,6.85156 16.24023,6.85156 l 5.21094,0 c 0.0468,21.43646 0.31516,33.36231 1.39453,40.0625 -19.92035,-0.0879 -41.64871,-0.1543 -68.052739,-0.1543 -0.25713,-9.76464 -0.56885,-22.78909 -0.701172,-40.36523 -0.11072,-14.77058 -0.142724,-52.44893 -0.146484,-98.57031 l -4.7e-5,0 0.002,0 c 19.569662,0.59993 177.504122,2.90234 222.511722,2.90234 26.304,0 84.10556,-0.10251 136.83594,0 -0.14358,27.10104 -0.27632,49.80645 -0.3711,60.07813 -0.38193,41.3908 -1.86998,64.96002 -0.95117,75.95507 -64.64278,0.90835 -56.85744,1.14472 -92.71456,1.08399 M 189.3457,768.15039 c 39.97556,1.34611 91.61454,22.51052 114.32171,28.57143 -0.20374,12.01459 -1.03282,11.8781 -9.17522,12.33677 -32.61585,-0.15607 -63.98549,-0.49031 -106.03516,-0.73828 0.29974,-1.47614 0.47884,-3.18755 0.54492,-5.16992 0.30602,-9.18059 0.33748,-24.46657 0.34375,-35 z"
       transform="translate(-445.35097,-70.584757)"
       id="path4952"
       inkscape:connector-curvature="0"
       sodipodi:nodetypes="cccsccccssscccccccccccsccccccsssscccccccscscccccscc" />
    <path
       sodipodi:nodetypes="cccsccccssscccccccccccsccccccscsccscsssssssscccccccccsccc"
       inkscape:connector-curvature="0"
       id="path4203"
       d="m 399.95128,6.9158013 c 27.15398,-1.0595686 55.69134,-2.7360099 78.77399,-3.7739963 4.53776,0 6.53833,2.429687 8.67383,13.353516 2.13538,10.923839 4.67187,36.716792 4.67187,47.640622 0,10.92383 -0.84931,8.19177 -21.61133,9.90821 -5.14982,0.42613 -30.44235,0.7971 -66.52344,1.11718 0.59214,60.521347 2.01642,448.030357 1.25,561.871097 -0.21489,49.80247 0.0366,80.92814 -0.16601,100.4414 l 18.25391,0 c 5.85569,0 10.57031,10.71798 10.57031,24.03125 l 0,13.73438 c 0,13.31335 -4.71462,24.03125 -10.57031,24.03125 l -399.91407,0 0,-709.695237 C 224.93047,68.788432 270.438,55.399027 399.95128,6.9158013 Z m -6.90375,68.3256117 c -30.5587,14.73406 -57.15738,10.78555 -148.99834,39.584147 -64.16584,11.64342 -169.6595,7.22974 -210.87041,25.4207 -0.14171,73.88898 -0.70488,162.99745 -0.18593,296.9932 158.79911,42.55009 183.04801,42.28166 359.98828,-1.79883 -0.10324,-150.88488 -0.23954,-315.23808 0.0664,-360.199217 z m -0.0566,375.679687 c -19.80466,0.60313 -153.19849,40.04325 -198.16546,40.04325 -26.41699,0 -108.862,-37.24781 -161.76618,-37.14286 0.19332,48.53075 0.3813,95.38387 0.56055,131.03125 129.66568,-0.25632 334.24563,-0.56953 359.43555,-1.79297 -0.004,-38.20766 -0.0363,-85.48457 -0.0645,-132.13867 z m 0.0625,147.61719 -0.002,0 c -19.56966,0.59993 -177.50412,2.90234 -222.51172,2.90234 -26.304,0 -84.10556,-0.10251 -136.83594,0 0.14358,27.10104 0.27632,49.80645 0.3711,60.07813 0.38193,41.3908 1.86998,64.96002 0.95117,75.95507 64.64278,0.90835 106.5003,1.14472 142.35742,1.08399 -0.41679,-1.65533 -0.66318,-3.62209 -0.74219,-5.99219 -0.30602,-9.18059 -0.33748,-24.46657 -0.34375,-35 l -0.20312,0 c -8.99678,0 -16.23828,-3.05563 -16.23828,-6.85156 l 0,-8.3418 c 0,-3.79593 7.2415,-6.85351 16.23828,-6.85351 l 154.66406,0 c 8.99678,0 16.24023,3.05758 16.24023,6.85351 l 0,8.3418 c 0,3.79593 -7.24345,6.85156 -16.24023,6.85156 l -5.21094,0 c -0.0468,21.43646 -0.31516,33.36231 -1.39453,40.0625 19.92035,-0.0879 41.64871,-0.1543 68.05274,-0.1543 0.25713,-9.76464 0.56885,-22.78909 0.70117,-40.36523 0.11072,-14.77058 0.14273,-52.44893 0.14649,-98.57031 z m -90.32812,99.02734 c -39.97556,1.34611 -64.23273,1.51523 -103.60742,0 -0.0488,22.36865 -0.33756,34.38861 -1.53907,40.9082 32.61585,-0.15607 63.98549,-0.49031 106.03516,-0.73828 -0.29974,-1.47614 -0.47884,-3.18755 -0.54492,-5.16992 -0.30602,-9.18059 -0.33748,-24.46657 -0.34375,-35 z"
       style="fill:#c0c0c0;fill-opacity:1;fill-rule:evenodd;stroke:none;stroke-width:1px;stroke-linecap:butt;stroke-linejoin:miter;stroke-opacity:1" />
  </g>
</svg>
